<?xml version="1.0" encoding="UTF-8"?>
<svg version="1.1" viewBox="0 0 2048 1531" width="1280" height="960" xmlns="http://www.w3.org/2000/svg">
<path transform="translate(0)" d="m0 0h2048v1531h-2048z" fill="#FCFCFC"/>
<path transform="translate(1142)" d="m0 0h59l45 4 40 5 43 7 31 7 20 6 24 10 14 8 13 10 12 12 9 13 6 13 4 12 2 13v24l-4 22-7 22-6 16-11 24-10 23-6 21-3 23v39l3 26 4 20 10 34 16 46 17 45 18 44 11 25 18 40 12 22 12 17 10 13 9 11 13 15 16 17 15 15 14 11 3 3 5-1 27-11 79-31 48-18 83-32 27-11 39-15h6l6 4 5 6 2 4-1 7-3 5-9 6-35 14-39 15-41 16-39 15-41 16-30 12-44 17-28 11-74 29-39 15-27 8-19 4-27 3-18 1h-11l-26-2-26-4-34-7-35-9-37-10-48-11-39-7-42-5-33-2-65-2-68-4-7-1 13 18 20 26 11 13 9 11 15 16 7 8 9 9 4 5 13 13 8 7 16 15 14 11 18 14 11 8 14 11 15 15 11 16 8 15 8 21 6 26 3 22v17l-4 20-7 18-9 19-12 20-14 21-11 15-12 16-11 14-11 13-14 15-17 17-14 11-16 8-12 3h-19l-25-5-21-7-23-11-23-13-22-14-14-10-17-12-15-11-18-14-16-13-14-11-17-14-27-21-13-10-16-12-19-14-17-12-13-10-13-12-11-12-10-13-10-15-13-24-10-21-11-29-6-19-9-36-7-35-4-32v-2l-20 13-15 9-21 12-23 12-21 10-23 9-23 7-21 4-16 2h-16l-18-3-18-6-22-13-43-29-16-10-25-16-11-8-25-16-42-28-26-17-21-14-20-13-19-12-17-12-6-7-2-5 2-9 5-5 5-3 8 1 13 7 33 22 16 10 15 10 23 15 22 14 33 22 44 29 17 11 19 12 12 8 26 17 14 8 15 6 4 1h24l23-4 27-8 26-11 21-10 22-12 27-16 18-11 42-28 16-10 22-14 21-11 24-8 25-5 23-3 12-1h62l50 3 112 9 40 3 7 1-2-21-3-42-6-67-5-45-6-41-50 8-54 9-48 9-41 8-56 12-62 12-38 7-53 8-49 6-30 3-18 1-34 1h-48l-33-1-32-3-33-5-28-6-27-8-22-9-25-12-22-13-18-13-12-9-10-8-11-9-16-15-13-13-7-8-12-14-7-10-2-4v-10l6-7 6-3 9 1 10 9 9 10 7 8 9 10 12 13 10 9 16 13 9 7 20 14 13 8 23 12 17 8 25 9 23 6 30 5 27 3 35 2h69l39-2 46-4 49-6 44-7 65-12 114-24 52-10 95-16 9-1v-2h-2l-10-13-12-14-11-12-16-16-8-7-15-13-11-9-17-12-18-12-21-13-12-7-16-11-16-12-14-12-8-8-8-11-8-14-6-14-4-18v-33l4-24 6-20 9-21 11-19 11-14 15-15 14-11 18-12 18-10 23-11 28-11 30-11 37-12 46-13 43-10 36-6z" fill="#D9D9DA"/>
<path transform="translate(1903,844)" d="m0 0h9l16 3 13 5 19 9 19 10 31 16 38 20v624h-2046l1-5 10-19 11-14 13-13 15-11 17-9 19-7 24-6 25-4h24l21 3 19 5 24 8 26 10 29 9 26 5 10 1h42l28-3 25-5 17-5 14-7 10-8 7-10 13-23 9-10 8-8 28-22 19-12 23-11 27-9 22-5 24-3 11-1h46l34 3 39 6 39 9 37 10 113 35 42 11 36 7 30 4 12 1 25 1h55l37-1 31-2 30-4 21-5 19-7 23-12 17-12 14-8 15-5 10-2h38l18 1h12l11-2 4-5 1-2v-10l-5-15-10-20-14-23-11-17-9-14-14-22-9-15-12-22-13-27-9-27-3-18v-11l3-14 8-16 11-13 14-15 15-15 11-9 13-10 21-12 17-8 25-9 23-7 64-16 52-11 20-4 3 5 15 35 13 30 11 26 14 32 11 26 12 28 17 40 13 30 11 25 3 7 6-1 29-12h2l-5-14-17-39-18-43-18-41-30-70-22-51-8-18-2-4 42-14 25-11 25-12 16-9 22-14 20-14 17-12 19-12 18-8 12-3z" fill="#B6D0DD"/>
<path transform="translate(1153,32)" d="m0 0h47l44 3 40 5 43 7 30 7 18 6 21 10 11 8 10 9 9 12 5 11 2 8v21l-3 19-9 27-15 34-10 25-11 32-10 23-8 16-8 15-11 17-10 14-13 15-22 22-17 13-13 8-25 12-33 11-38 10-40 9-47 9-57 10-13 2h-7l-10-15-9-13-12-14-12-13-19-19-11-9-15-13-15-12-18-13-17-11-19-12-23-14-13-10-13-11-7-7-11-14-6-11-3-12-1-7v-27l4-20 8-23 8-16 9-13 11-12 12-11 17-12 18-10 16-8 20-9 30-11 36-12 43-13 36-9 35-7 28-4 23-2z" fill="#FDFDFD"/>
<path transform="translate(728,752)" d="m0 0h10l4 55 5 37 6 25 5 15 8 16 6 9 14 14 11 9 11 10 11 9 16 13 13 11 14 11 15 12 16 12 17 13 19 13 18 12 19 12 26 15 17 11 16 12 10 9 8 7 16 16 11 14 9 11 10 14 9 13 3 3-2 5-11 14-9 10-7 8-11 12-13 12-12 8-13 4h-15l-20-5-25-10-21-11-22-14-15-10-16-11-19-14-25-20-17-13-17-14-10-8-16-13-16-12-18-14-14-10-19-14-11-8-10-8-12-11-11-13-14-21-12-22-12-29-9-27-11-44-6-32-4-32v-12l16-10 20-13 19-12 13-6 18-6 18-4z" fill="#FCFCFC"/>
<path transform="translate(1384,346)" d="m0 0 3 1 4 27 7 28 12 38 12 34 12 32 13 32 13 31 16 36 9 20 12 23 14 21 12 16 12 14 9 10 7 8 12 13 12 12 11 9-1 2-36 14-34 13-23 7-23 5-26 3h-34l-36-5-26-5-16-5-9-6-6-9-14-38-15-43-17-48-20-57-17-48-14-40-5-14v-3l36-11 20-8 25-13 16-11 13-11 8-7 17-17 9-11 8-10 15-23z" fill="#FDFDFD"/>
<path transform="translate(751,751)" d="m0 0h56l54 3 44 4 14 2 6 7 12 17 11 15 13 17 8 10 13 16 9 10 9 11 15 16 9 10 20 20 8 7 12 11 11 9 15 12 14 10 16 12 14 14 10 15 7 16 7 22 3 18v27l-3 12-7 16-8 16-10 17-22 32h-3l-14-20-10-13-14-17-11-12-9-10-13-12-13-10-13-9-20-12-29-17-24-16-20-14-18-13-17-13-14-11-22-18-15-13-11-9-10-9-11-9-15-14-7-7-8-14-7-21-5-24-4-29-3-40z" fill="#FDFDFD"/>
<path transform="translate(1199,478)" d="m0 0 3 1 16 45 17 48 15 43 14 40 40 112 2 4v3l-18-4-52-13-29-6-36-6-32-4-28-2-63-2-1-1-6-79-6-65-7-54-3-19v-6l20-4 62-11 40-8 43-10z" fill="#FDFDFD"/>
<path transform="translate(1956,1527)" d="m0 0h32l60 1v3h-1481v-2l709-1h324z" fill="#FDFDFD"/>
<path transform="translate(362,792)" d="m0 0h61l3 3 1 3v41l-3 5-2 1h-59l-4-3-1-5v-29l1-13z" fill="#FDFDFD"/>
<path transform="translate(526,619)" d="m0 0h12l6 2v9h21l1 1v55l-2 1-15 1h-26l-7-1-1-1v-54l5-2v-8l1-2z" fill="#FDFDFD"/>
<path transform="translate(215,591)" d="m0 0h15l8 3 10 9 5 9 1 4v10l-3 10-7 9-9 6-7 2h-10l-10-3-10-8-5-8-2-7v-9l3-10 7-9 9-6z" fill="#FCFCFC"/>
<path transform="translate(503,476)" d="m0 0h13l9 3 8 7 5 10 1 4v7l-4 11-6 7-12 6h-15l-10-5-5-4-5-9-1-3v-12l4-10 4-5 10-6z" fill="#FDFDFD"/>
<path transform="translate(1929,509)" d="m0 0h18l1 1v13l-2 1-14 1-1 3 6 2 10 4 2 2v4l5 1 5 6 6 14v2l6 2 6 4 6 8 7 12v2l-5-1-10-16-5-4-8-4-7-15-3-5-3 3-5 6-8 3h-4l14 16-1 5-9 11-4 1-1-2 9-12-1-5-12-12 1-4h-2-3l4 7 6 7 1 6-9 8-9 6h-3l1-4 12-9 3-2-2-5-7-8-2-3 1-5 9-4 10-3 5-6 1-4-9-2-5-2-4 1-10 19-5 6-8 4-7 18-4 10-4-1 4-13 6-16 8-5 4-2 10-20 5-5 3-1v-18z" fill="#BBD1DC"/>
<path transform="translate(1316,1293)" d="m0 0h51l2 1-1 4-8 1 2 10h20v4h-18l5 19v3l-8 1-4-2-5-20h-23l-6 21-5 1-6-1 1-8 4-14h-19v-4h21l2-11h-8l-2-1v-3z" fill="#BDD2DD"/>
<path transform="translate(1075,1353)" d="m0 0h54l2 1-1 3-2 1h-7l2 7v4h20v4h-18l5 18v4l-8 1-3-1-5-18v-4h-24l-4 17-2 5-4 1-7-1 2-11 3-11h-18v-4h20l2-10-9-2v-3z" fill="#BDD1DC"/>
<path transform="translate(1208,1350)" d="m0 0h57v4h-9l2 6v4h-4l-3-9-2-1 3 10 26 1v4l-1 1h-17l6 19v2l-3 1h-7l-3-3-4-16v-3h-25l-1 9-3 11-2 2h-10l1-8 4-14h-15l-4-2 1-3h21l-1-4 3-7h-9z" fill="#BCD1DC"/>
</svg>
